<svg xmlns="http://www.w3.org/2000/svg" viewBox="0 0 1254 1254" role="img" aria-label="Irrlicht">
  <defs>
    <linearGradient id="flameGradient" x1="0.62" y1="0.95" x2="0.38" y2="0.08">
      <stop offset="0%" stop-color="#A78BFA"/>
      <stop offset="30%" stop-color="#8B5CF6"/>
      <stop offset="65%" stop-color="#6D28D9"/>
      <stop offset="100%" stop-color="#5B21B6"/>
    </linearGradient>
    <radialGradient id="innerGlowTop" cx="0.35" cy="0.18" r="0.85">
      <stop offset="0%" stop-color="#FFFFFF" stop-opacity="0.13"/>
      <stop offset="25%" stop-color="#F5F0FF" stop-opacity="0.08"/>
      <stop offset="54%" stop-color="#D9C8FF" stop-opacity="0.03"/>
      <stop offset="100%" stop-color="#FFFFFF" stop-opacity="0"/>
    </radialGradient>
    <radialGradient id="innerGlowBottom" cx="0.53" cy="0.92" r="0.42">
      <stop offset="0%" stop-color="#B691FF" stop-opacity="0.16"/>
      <stop offset="45%" stop-color="#8B5CF6" stop-opacity="0.08"/>
      <stop offset="100%" stop-color="#FFFFFF" stop-opacity="0"/>
    </radialGradient>
    <mask id="flameMask">
      <path fill-rule="evenodd" fill="white" d="M590 166L587 168L586 173L592 180L604 200L608 209L612 223L613 247L609 267L600 288L594 298L581 315L558 338L536 356L516 375L498 397L483 424L478 437L473 456L472 473L471 474L472 500L473 501L473 508L474 509L475 524L476 525L476 546L473 559L467 570L461 576L453 580L442 580L433 576L420 563L416 556L411 536L412 511L416 496L419 491L419 485L416 482L412 482L400 489L392 495L374 513L355 537L342 558L326 591L314 625L307 655L305 675L304 676L304 684L303 685L303 703L302 704L303 743L304 744L304 753L305 754L307 773L316 809L318 812L329 844L342 870L356 893L380 925L421 966L452 989L479 1005L509 1019L534 1028L561 1035L582 1038L583 1039L589 1039L590 1040L613 1041L614 1042L657 1041L658 1040L665 1040L666 1039L673 1039L685 1036L690 1036L718 1029L736 1023L773 1007L801 991L824 975L841 961L876 925L893 903L911 875L926 845L939 810L947 779L950 754L951 753L951 745L952 744L953 718L954 717L953 676L952 675L952 666L951 665L947 634L939 603L921 559L907 536L901 534L897 538L898 559L895 575L886 592L875 603L866 607L856 607L846 601L841 595L835 581L834 556L845 506L845 493L846 492L845 473L837 443L829 426L814 405L797 389L788 384L786 384L782 387L782 394L784 401L784 413L785 414L784 428L782 437L778 448L769 463L759 473L744 481L729 482L717 478L705 467L698 453L696 444L696 437L695 436L695 427L696 426L697 410L706 380L713 348L714 333L715 332L715 303L714 302L714 294L713 293L712 283L704 256L689 227L680 215L667 201L654 190L640 181L621 172L600 166ZM494 710L504 711L515 715L521 719L532 730L539 740L544 750L548 762L551 777L551 805L550 806L550 811L546 826L540 839L532 851L522 861L512 867L503 870L489 870L479 867L469 861L459 851L453 842L447 829L443 816L442 806L441 805L441 795L440 794L441 775L443 765L447 752L454 738L458 732L471 719L484 712ZM757 709L767 709L775 711L787 718L797 728L802 735L809 749L813 762L815 772L815 781L816 782L816 795L815 796L814 811L809 828L803 841L797 850L785 862L774 868L766 870L755 870L745 867L735 861L724 850L718 841L711 825L706 800L706 782L707 781L709 764L714 749L719 739L725 730L738 717L749 711Z"/>
    </mask>
  </defs>
  <path fill-rule="evenodd" fill="url(#flameGradient)" d="M590 166L587 168L586 173L592 180L604 200L608 209L612 223L613 247L609 267L600 288L594 298L581 315L558 338L536 356L516 375L498 397L483 424L478 437L473 456L472 473L471 474L472 500L473 501L473 508L474 509L475 524L476 525L476 546L473 559L467 570L461 576L453 580L442 580L433 576L420 563L416 556L411 536L412 511L416 496L419 491L419 485L416 482L412 482L400 489L392 495L374 513L355 537L342 558L326 591L314 625L307 655L305 675L304 676L304 684L303 685L303 703L302 704L303 743L304 744L304 753L305 754L307 773L316 809L318 812L329 844L342 870L356 893L380 925L421 966L452 989L479 1005L509 1019L534 1028L561 1035L582 1038L583 1039L589 1039L590 1040L613 1041L614 1042L657 1041L658 1040L665 1040L666 1039L673 1039L685 1036L690 1036L718 1029L736 1023L773 1007L801 991L824 975L841 961L876 925L893 903L911 875L926 845L939 810L947 779L950 754L951 753L951 745L952 744L953 718L954 717L953 676L952 675L952 666L951 665L947 634L939 603L921 559L907 536L901 534L897 538L898 559L895 575L886 592L875 603L866 607L856 607L846 601L841 595L835 581L834 556L845 506L845 493L846 492L845 473L837 443L829 426L814 405L797 389L788 384L786 384L782 387L782 394L784 401L784 413L785 414L784 428L782 437L778 448L769 463L759 473L744 481L729 482L717 478L705 467L698 453L696 444L696 437L695 436L695 427L696 426L697 410L706 380L713 348L714 333L715 332L715 303L714 302L714 294L713 293L712 283L704 256L689 227L680 215L667 201L654 190L640 181L621 172L600 166ZM494 710L504 711L515 715L521 719L532 730L539 740L544 750L548 762L551 777L551 805L550 806L550 811L546 826L540 839L532 851L522 861L512 867L503 870L489 870L479 867L469 861L459 851L453 842L447 829L443 816L442 806L441 805L441 795L440 794L441 775L443 765L447 752L454 738L458 732L471 719L484 712ZM757 709L767 709L775 711L787 718L797 728L802 735L809 749L813 762L815 772L815 781L816 782L816 795L815 796L814 811L809 828L803 841L797 850L785 862L774 868L766 870L755 870L745 867L735 861L724 850L718 841L711 825L706 800L706 782L707 781L709 764L714 749L719 739L725 730L738 717L749 711Z"/>
  <g mask="url(#flameMask)">
    <ellipse cx="565" cy="275" rx="180" ry="210" fill="url(#innerGlowTop)"/>
    <ellipse cx="635" cy="920" rx="250" ry="220" fill="url(#innerGlowBottom)"/>
  </g>
</svg>
