<svg xmlns="http://www.w3.org/2000/svg" width="1254" height="1254" viewBox="0 0 1254 1254" role="img" aria-labelledby="title desc">
  <title id="title">Irrlicht monocolor flame icon</title>
  <desc id="desc">A simplified single-color flame silhouette on a transparent background.</desc>
  <path fill="#6B3AF1" d="M584 157C609 199 615 250 609 308C604 362 581 412 526 464C474 513 424 562 392 625C356 695 349 790 372 869C410 1001 516 1065 635 1065C790 1065 888 956 888 785C888 718 858 654 800 615C791 609 787 612 788 624C789 644 795 661 794 683C792 743 755 784 697 784C654 784 625 751 624 699C623 661 644 621 670 581C706 526 734 484 734 416C734 321 680 246 598 167C593 162 588 158 584 157Z"/>
</svg>
