<?xml version="1.0" encoding="UTF-8"?>
<svg xmlns="http://www.w3.org/2000/svg" width="1254" height="1254" viewBox="0 0 1254 1254" role="img" aria-labelledby="title desc">
  <title id="title">Irrlicht purple flame logo on dark background</title>
  <desc id="desc">Minimal monocolor purple irrlicht flame mark with two oval eye cutouts on a dark background.</desc>
  <rect width="1254" height="1254" fill="#060608"/>
  <path fill="#8E13F6" fill-rule="evenodd" clip-rule="evenodd" d="
    M 590 166 L 587 168 L 586 173 L 592 180 L 604 200 L 608 209 L 612 223 L 613 247 L 609 267 L 600 288 L 594 298 L 581 315 L 558 338 L 536 356 L 516 375 L 498 397 L 483 424 L 478 437 L 473 456 L 472 473 L 471 474 L 472 500 L 473 501 L 473 508 L 474 509 L 475 524 L 476 525 L 476 546 L 473 559 L 467 570 L 461 576 L 453 580 L 442 580 L 433 576 L 420 563 L 416 556 L 411 536 L 412 511 L 416 496 L 419 491 L 419 485 L 416 482 L 412 482 L 400 489 L 392 495 L 374 513 L 355 537 L 342 558 L 326 591 L 314 625 L 307 655 L 305 675 L 304 676 L 304 684 L 303 685 L 303 703 L 302 704 L 303 743 L 304 744 L 304 753 L 305 754 L 307 773 L 316 809 L 318 812 L 329 844 L 342 870 L 356 893 L 380 925 L 421 966 L 452 989 L 479 1005 L 509 1019 L 534 1028 L 561 1035 L 582 1038 L 583 1039 L 589 1039 L 590 1040 L 613 1041 L 614 1042 L 657 1041 L 658 1040 L 665 1040 L 666 1039 L 673 1039 L 685 1036 L 690 1036 L 718 1029 L 736 1023 L 773 1007 L 801 991 L 824 975 L 841 961 L 876 925 L 893 903 L 911 875 L 926 845 L 939 810 L 947 779 L 950 754 L 951 753 L 951 745 L 952 744 L 953 718 L 954 717 L 953 676 L 952 675 L 952 666 L 951 665 L 947 634 L 939 603 L 921 559 L 907 536 L 901 534 L 897 538 L 898 559 L 895 575 L 886 592 L 875 603 L 866 607 L 856 607 L 846 601 L 841 595 L 835 581 L 834 556 L 845 506 L 845 493 L 846 492 L 845 473 L 837 443 L 829 426 L 814 405 L 797 389 L 788 384 L 786 384 L 782 387 L 782 394 L 784 401 L 784 413 L 785 414 L 784 428 L 782 437 L 778 448 L 769 463 L 759 473 L 744 481 L 729 482 L 717 478 L 705 467 L 698 453 L 696 444 L 696 437 L 695 436 L 695 427 L 696 426 L 697 410 L 706 380 L 713 348 L 714 333 L 715 332 L 715 303 L 714 302 L 714 294 L 713 293 L 712 283 L 704 256 L 689 227 L 680 215 L 667 201 L 654 190 L 640 181 L 621 172 L 600 166 Z
    M 494 710 L 504 711 L 515 715 L 521 719 L 532 730 L 539 740 L 544 750 L 548 762 L 551 777 L 551 805 L 550 806 L 550 811 L 546 826 L 540 839 L 532 851 L 522 861 L 512 867 L 503 870 L 489 870 L 479 867 L 469 861 L 459 851 L 453 842 L 447 829 L 443 816 L 442 806 L 441 805 L 441 795 L 440 794 L 441 775 L 443 765 L 447 752 L 454 738 L 458 732 L 471 719 L 484 712 Z
    M 757 709 L 767 709 L 775 711 L 787 718 L 797 728 L 802 735 L 809 749 L 813 762 L 815 772 L 815 781 L 816 782 L 816 795 L 815 796 L 814 811 L 809 828 L 803 841 L 797 850 L 785 862 L 774 868 L 766 870 L 755 870 L 745 867 L 735 861 L 724 850 L 718 841 L 711 825 L 706 800 L 706 782 L 707 781 L 709 764 L 714 749 L 719 739 L 725 730 L 738 717 L 749 711 Z
  "/>
</svg>
